<?xml version="1.0" standalone="no"?>
<!DOCTYPE svg PUBLIC "-//W3C//DTD SVG 20010904//EN"
 "http://www.w3.org/TR/2001/REC-SVG-20010904/DTD/svg10.dtd">
<svg version="1.0" xmlns="http://www.w3.org/2000/svg"
 width="120.000000pt" height="120.000000pt" viewBox="0 0 120.000000 120.000000"
 preserveAspectRatio="xMidYMid meet">
<metadata>
Created by potrace 1.14, written by Peter Selinger 2001-2017
</metadata>
<g transform="translate(0.000000,120.000000) scale(0.100000,-0.100000)"
fill="#000000" stroke="none">
<path d="M490 1169 c-75 -15 -204 -73 -239 -108 -10 -10 -25 -23 -33 -27 -29
-19 -101 -111 -128 -165 -43 -84 -63 -165 -63 -256 -1 -67 4 -94 28 -152 15
-39 32 -71 37 -71 4 0 8 -5 8 -11 0 -33 145 -178 246 -245 88 -59 172 -99 227
-109 102 -19 355 132 484 290 134 164 153 340 57 540 -69 146 -192 250 -353
301 -55 18 -209 25 -271 13z"/>
</g>
</svg>
